<svg xmlns="http://www.w3.org/2000/svg" width="55" height="55" viewBox="0 0 55 55">
    <g fill="none" fill-rule="evenodd">
        <g>
            <g>
                <g>
                    <g transform="translate(-850 -924) translate(250 680) translate(0 110) translate(602 136)">
                        <circle cx="25.5" cy="25.5" r="26.3" fill="#FFF" stroke="#E0E2E4" stroke-width="1.6"/>
                        <g fill="#C4CDD5" fill-rule="nonzero">
                            <path d="M21.205.333c-.429-.444-1.143-.444-1.587 0-.429.429-.429 1.143 0 1.571l8.047 8.047H1.111C.492 9.952 0 10.444 0 11.063c0 .619.492 1.127 1.111 1.127h26.554l-8.047 8.032c-.429.444-.429 1.159 0 1.587.444.444 1.159.444 1.587 0l9.952-9.952c.444-.429.444-1.143 0-1.571L21.205.333z" transform="translate(10 14)"/>
                        </g>
                    </g>
                </g>
            </g>
        </g>
    </g>
</svg>
