<svg xmlns="http://www.w3.org/2000/svg" xmlns:xlink="http://www.w3.org/1999/xlink" width="1129" height="249" viewBox="0 0 1129 249">
    <defs>
        <linearGradient id="4qz7gs5w1b" x1="96.571%" x2="9.038%" y1="121.694%" y2="33.489%">
            <stop offset="0%" stop-color="#85B81C"/>
            <stop offset="100%" stop-color="#C5F9FF"/>
        </linearGradient>
        <linearGradient id="n2fjtvaerf" x1="59.729%" x2="33.319%" y1="107.913%" y2="-2.08%">
            <stop offset="0%" stop-color="#388118"/>
            <stop offset="100%" stop-color="#3EC3D1"/>
        </linearGradient>
        <linearGradient id="6hn2c3lifi" x1="97.808%" x2="31.234%" y1="127.081%" y2="48.075%">
            <stop offset="0%" stop-color="#A9EC73"/>
            <stop offset="100%" stop-color="#6CE2EF"/>
        </linearGradient>
        <linearGradient id="lfvper66al" x1="107.115%" x2="-1.291%" y1="92.525%" y2="5.376%">
            <stop offset="0%" stop-color="#A9EC73"/>
            <stop offset="100%" stop-color="#3ED1D1"/>
        </linearGradient>
        <linearGradient id="cqntljr3ho" x1="2.062%" x2="78.726%" y1="18.133%" y2="101.697%">
            <stop offset="0%" stop-color="#FFF"/>
            <stop offset="100%" stop-color="#FFE8B8"/>
        </linearGradient>
        <linearGradient id="jb741igqjr" x1="-23.769%" x2="98.4%" y1="-29.063%" y2="101.867%">
            <stop offset="0%" stop-color="#FFF"/>
            <stop offset="100%" stop-color="#FFE8B8"/>
        </linearGradient>
        <linearGradient id="asa7nwu3zt" x1="33.151%" x2="59.046%" y1="149.195%" y2="-3.244%">
            <stop offset="0%" stop-color="#F7CE8F"/>
            <stop offset="100%" stop-color="#D97D61"/>
        </linearGradient>
        <linearGradient id="spg2tf57jv" x1="44.685%" x2="57.354%" y1="116.887%" y2="-42.589%">
            <stop offset="0%" stop-color="#D95E36"/>
            <stop offset="100%" stop-color="#80331A"/>
        </linearGradient>
        <linearGradient id="6g53gyedqy" x1="19.398%" x2="85.657%" y1="-25.113%" y2="36.637%">
            <stop offset="0%" stop-color="#FFF"/>
            <stop offset="100%" stop-color="#FFE8B8"/>
        </linearGradient>
        <linearGradient id="hvneewlgrB" x1="69.843%" x2="32.39%" y1="97.976%" y2="9.836%">
            <stop offset="0%" stop-color="#388118"/>
            <stop offset="100%" stop-color="#3ED1D1"/>
        </linearGradient>
        <linearGradient id="0vw99jl1pE" x1="73.14%" x2="28.634%" y1="82.087%" y2="4.586%">
            <stop offset="0%" stop-color="#A9EC73"/>
            <stop offset="100%" stop-color="#6CE2EF"/>
        </linearGradient>
        <linearGradient id="ou3biv1dcH" x1="50.134%" x2="48.391%" y1="116.066%" y2="-93.854%">
            <stop offset="0%" stop-color="#388118"/>
            <stop offset="100%" stop-color="#3EC3D1"/>
        </linearGradient>
        <linearGradient id="fim0wun4eK" x1="-2.684%" x2="75.871%" y1="109.21%" y2="40.138%">
            <stop offset="0%" stop-color="#69CF17"/>
            <stop offset="100%" stop-color="#6CE2EF"/>
        </linearGradient>
        <linearGradient id="g88kz719pN" x1="73.718%" x2="27.684%" y1="97.587%" y2="11.714%">
            <stop offset="0%" stop-color="#388118"/>
            <stop offset="100%" stop-color="#3ED1D1"/>
        </linearGradient>
        <linearGradient id="lh0ttyb1dQ" x1="73.574%" x2="26.407%" y1="72.155%" y2="15.69%">
            <stop offset="0%" stop-color="#A9EC73"/>
            <stop offset="100%" stop-color="#6CE2EF"/>
        </linearGradient>
        <path id="0b3ju6clza" d="M847.943 83.46c-35.467 16.382-70.247 7.34-114.45-22.18C603.19-25.746 510.972-13.937 389.56 64.638c-25.868 16.743-67.625 44.576-137.623 24.77C149.494 60.417 44.135 89.73.044 170.371h1161.727c-33.065-63.001-156.75-159.454-313.828-86.912"/>
        <path id="fq9klep7dd" d="M491.488.287C296.336.287 234.263 85.04.577 85.04h171.662c233.685 0 223.044-84.753 418.2-84.753h-98.95"/>
        <path id="3pi2mn6nbe" d="M.19 93.702c5.065-9.4 30.387-27.88 62.524-22.873 35.079 5.468 42.787-6.458 57.248-11.417 26.478-9.078 46.914 20.875 56.066 1.87 11.685-24.264 30.653-36.258 88.496-12.391 13.74 5.67 12.797-6.89 19.051-14.226 12.146-14.242 26.853 12.047 33.602 10.605 7.662-1.64 5.323-12.83 9.811-22.412 9.349-19.964 25.484-1.2 36.607-2.849C374.67 18.37 380.6-3.603 393.138.84c26.79 9.49 18.38 65.27 16.724 77.714 7.619-10.619 21.033-18.416 21.033 15.149H.19"/>
        <path id="o4w47iyw1h" d="M2.74 52.282h129.946c6.753-26.83-19.77-13.415-19.77-13.415s9.997-28.221-.249-25.291c-9.894 2.828-14.234 24.811-14.234 24.811s-5.33-35.9-17.02-38.254c-7.587-1.528-1.633 34.134-1.633 34.134s-4.477-3.81-10.92-3.907c-5.413-.082-4.102 6.881-4.102 6.881s-11.291-23.154-17.17-22.853c-7.374.378.533 24.702.533 24.702s-14.517-15.815-20.237-15.4c-7.948.576 5.909 23.16 5.909 23.16s-10.53-6.336-23.057-5.29c-9.04.755-12.508 4.407-7.997 10.722"/>
        <path id="ao402u4eyk" d="M74.1 101.56c0 55.832-22.175 101.494-37.551 101.494C21.164 203.054.783 142.1.783 86.27c0-55.832 24.902-91.83 42.794-85.397C63.747 8.12 74.101 45.73 74.101 101.56"/>
        <path id="ug30sdqndn" d="M118.821 201.216L0.112 201.216 0.112 82.289 59.465 0.432 118.821 82.289 118.821 201.216"/>
        <path id="8q0xrs3elq" d="M0.466 0.057L136.731 0.057 136.731 97.227 0.466 97.227z"/>
        <path id="hqjea08pcu" d="M0.53 0.432L140.531 0.432 199.88 82.289 59.886 82.289 0.53 0.432"/>
        <path id="dy2757mgrx" d="M39.285 0.511L0.695 0.511 39.285 56.732 39.285 0.511"/>
        <path id="rs8wefghzA" d="M144.966 47.58c-3.082-4.982-9.332-9.736-17.241-10.894-13.188-1.929-8.662-16.557-20.124-20.428-12.087-4.084-13.106 5.652-44.017-11.902C54.942-.553 38.915-2.092 31.8 7.234c-4.165 5.459-5.186 13.397-3.962 20.007 1.176 6.36 5.929 15.542.764 21.258-4.905 5.428-13.531 3.71-19.505 7.157-6.07 3.502-8.41 10.58-8.501 17.247-.217 15.572 6.453 32.362 16.33 44.243 20.586 24.76 57.68 30.68 86.972 20.016 17.31-6.3 30.853-19.131 38.756-35.74 7.523-15.806 12.11-37.988 2.312-53.842"/>
        <path id="5yocuwedzD" d="M99.066 15.183c-6.526.31-13.328 1.763-35.485-10.83C54.945-.552 38.92-2.09 31.798 7.236c-4.159 5.459-5.183 13.395-3.957 20.007 1.173 6.356 5.93 15.542.758 21.258-4.905 5.426-13.53 3.707-19.502 7.157C3.03 59.161.684 66.233.6 72.898c-.224 15.575 6.45 32.368 16.323 44.245.95 1.143 1.93 2.244 2.954 3.3 37.179 20.264 10.257-41.52 22.668-52.736 7.858-7.103 23.223 2.96 30.185-2.029 3.476-2.489 3.198-7.414.49-11.163-8.36-11.548-21.794-23.843-15.15-30.83 3.55-3.738 10.62-1.687 23.936-1.644 15.386.044 23.318-3.931 17.06-6.858"/>
        <path id="6mvmikllqG" d="M227.483 46.113c-3.88-9.399-23.249-27.88-47.826-22.872-26.838 5.468-32.731-6.458-43.797-11.417-20.25-9.079-30.224 13.446-42.882 1.87C75.297-2.472 60.976-4.12 49.558 10.775 33.146 32.196 6.238 8.476.195 46.113h227.289"/>
        <path id="yjcznmq9bJ" d="M102.592 47.876H.212c.58-31.388 8.822-11.24 8.822-11.24s2.71-22.938 8.7-23.867c5.656-.879 8.32 22.505 8.32 22.505S32.205 1.864 40.34.576c7.143-1.13 1.53 30.961 1.53 30.961s4.188-3.298 10.204-3.545c6.695-.275 3.959 6.242 3.959 6.242s8.365-14.511 13.863-14.238c6.887.342 2.146 15.052 2.146 15.052s5.067-4.844 10.38-5.527c10.397-1.335-.642 11.992-.642 11.992s7.38-3.026 20.1-4.95c12.411-1.877 9.834 5.219.712 11.313"/>
        <path id="ib75ys72jM" d="M140.452 35.574c.307-18.657-16.265-24.525-32.336-19.316-12.156 3.94-13.142 5.652-43.929-11.902-8.603-4.909-24.62-6.448-31.808 2.878-4.204 5.459-5.277 13.397-4.107 20.007 1.134 6.36 5.823 15.542.615 21.258-4.943 5.428-13.564 3.71-19.563 7.157-6.096 3.502-8.48 10.58-8.62 17.247-.335 15.572 5.559 32.936 16.01 44.243 21.058 22.8 58.082 31.61 92.29 22.889 75.43-19.227 47.061-59.827 38.22-70.59-9.517-11.573-6.984-21.007-6.772-33.87"/>
        <path id="wgl0njz3sP" d="M109.049 15.984c-.308.087-.625.182-.933.278-12.156 3.931-13.142 5.652-43.929-11.91-8.612-4.904-24.62-6.441-31.799 2.884-4.213 5.459-5.295 13.395-4.116 20.007 1.134 6.356 5.814 15.542.615 21.258-4.943 5.426-13.555 3.707-19.554 7.157C3.228 59.161.844 66.233.695 72.898c-.326 15.575 6.219 32.368 16.018 44.245 1.293 1.57 2.648 3.066 4.082 4.487 33.778 20.563-1.346-23.853 26.538-42.194 13.784-9.08 40.393-18.619 28.808-33.07-8.462-10.566-14.883-14.68-12.297-20.49 1.416-3.205 5.56-6.217 18.64-3.835 17.891 3.269 30.954-3.087 26.565-6.057"/>
    </defs>
    <g fill="none" fill-rule="evenodd">
        <g>
            <g>
                <g>
                    <g>
                        <g>
                            <g transform="translate(-311 -382) translate(4 -1) translate(307 383) translate(0 78.433)">
                                <mask id="3gul54vnvc" fill="#fff">
                                    <use xlink:href="#0b3ju6clza"/>
                                </mask>
                                <path fill="url(#4qz7gs5w1b)" d="M847.943 83.46c-35.467 16.382-70.247 7.34-114.45-22.18C603.19-25.746 510.972-13.937 389.56 64.638c-25.868 16.743-67.625 44.576-137.623 24.77C149.494 60.417 44.135 89.73.044 170.371h1161.727c-33.065-63.001-156.75-159.454-313.828-86.912" mask="url(#3gul54vnvc)"/>
                            </g>
                            <g transform="translate(-311 -382) translate(4 -1) translate(307 383) translate(302.595 248.517)"/>
                            <g transform="translate(-311 -382) translate(4 -1) translate(307 383) translate(235.743 155.103)">
                                <mask id="k9lubmnkyg" fill="#fff">
                                    <use xlink:href="#3pi2mn6nbe"/>
                                </mask>
                                <path fill="url(#n2fjtvaerf)" d="M.19 93.702c5.065-9.4 30.387-27.88 62.524-22.873 35.079 5.468 42.787-6.458 57.248-11.417 26.478-9.078 46.914 20.875 56.066 1.87 11.685-24.264 30.653-36.258 88.496-12.391 13.74 5.67 12.797-6.89 19.051-14.226 12.146-14.242 26.853 12.047 33.602 10.605 7.662-1.64 5.323-12.83 9.811-22.412 9.349-19.964 25.484-1.2 36.607-2.849C374.67 18.37 380.6-3.603 393.138.84c26.79 9.49 18.38 65.27 16.724 77.714 7.619-10.619 21.033-18.416 21.033 15.149H.19" mask="url(#k9lubmnkyg)"/>
                            </g>
                            <g transform="translate(-311 -382) translate(4 -1) translate(307 383) translate(352.734 196.522)">
                                <mask id="gku6eilugj" fill="#fff">
                                    <use xlink:href="#o4w47iyw1h"/>
                                </mask>
                                <path fill="url(#6hn2c3lifi)" d="M2.74 52.282h129.946c6.753-26.83-19.77-13.415-19.77-13.415s9.997-28.221-.249-25.291c-9.894 2.828-14.234 24.811-14.234 24.811s-5.33-35.9-17.02-38.254c-7.587-1.528-1.633 34.134-1.633 34.134s-4.477-3.81-10.92-3.907c-5.413-.082-4.102 6.881-4.102 6.881s-11.291-23.154-17.17-22.853c-7.374.378.533 24.702.533 24.702s-14.517-15.815-20.237-15.4c-7.948.576 5.909 23.16 5.909 23.16s-10.53-6.336-23.057-5.29c-9.04.755-12.508 4.407-7.997 10.722" mask="url(#gku6eilugj)"/>
                            </g>
                            <g transform="translate(-311 -382) translate(4 -1) translate(307 383) translate(928.017)">
                                <mask id="b13r6jt8lm" fill="#fff">
                                    <use xlink:href="#ao402u4eyk"/>
                                </mask>
                                <path fill="url(#lfvper66al)" d="M74.1 101.56c0 55.832-22.175 101.494-37.551 101.494C21.164 203.054.783 142.1.783 86.27c0-55.832 24.902-91.83 42.794-85.397C63.747 8.12 74.101 45.73 74.101 101.56" mask="url(#b13r6jt8lm)"/>
                            </g>
                            <g transform="translate(-311 -382) translate(4 -1) translate(307 383) translate(634.218 47.588)">
                                <mask id="nnx2pg6kdp" fill="#fff">
                                    <use xlink:href="#ug30sdqndn"/>
                                </mask>
                                <path fill="url(#cqntljr3ho)" d="M118.821 201.216L0.112 201.216 0.112 82.289 59.465 0.432 118.821 82.289 118.821 201.216" mask="url(#nnx2pg6kdp)"/>
                            </g>
                            <path fill="#F7CE8F" d="M753.039 248.804L893.034 248.804 893.034 129.878 753.039 129.878z" transform="translate(-311 -382) translate(4 -1) translate(307 383)"/>
                            <g transform="translate(-311 -382) translate(4 -1) translate(307 383) translate(774.96 151.578)">
                                <mask id="qbyxhfxp1s" fill="#fff">
                                    <use xlink:href="#8q0xrs3elq"/>
                                </mask>
                                <path fill="url(#jb741igqjr)" d="M0.466 97.227L136.731 97.227 136.731 0.057 0.466 0.057z" mask="url(#qbyxhfxp1s)"/>
                            </g>
                            <path fill="url(#asa7nwu3zt)" d="M911.691 248.804L1051.685 248.804 1051.685 151.635 911.691 151.635z" transform="translate(-311 -382) translate(4 -1) translate(307 383)"/>
                            <path fill="#9D9D9C" d="M794.083 248.804L893.034 248.804 893.034 173.533 794.083 173.533z" transform="translate(-311 -382) translate(4 -1) translate(307 383)"/>
                            <g transform="translate(-311 -382) translate(4 -1) translate(307 383) translate(693.154 47.588)">
                                <mask id="z4t22amzdw" fill="#fff">
                                    <use xlink:href="#hqjea08pcu"/>
                                </mask>
                                <path fill="url(#spg2tf57jv)" d="M0.53 0.432L140.531 0.432 199.88 82.289 59.886 82.289 0.53 0.432" mask="url(#z4t22amzdw)"/>
                            </g>
                            <path fill="#F7CE8F" d="M794.083 248.804L799.862 248.804 799.862 173.533 794.083 173.533z" transform="translate(-311 -382) translate(4 -1) translate(307 383)"/>
                            <path fill="#415680" d="M799.862 175.181L893.034 175.181 893.034 173.533 799.862 173.533zM799.862 181.315L893.034 181.315 893.034 179.668 799.862 179.668zM799.862 187.451L893.034 187.451 893.034 185.804 799.862 185.804zM799.862 193.586L893.034 193.586 893.034 191.939 799.862 191.939zM799.862 199.721L893.034 199.721 893.034 198.074 799.862 198.074zM799.862 205.857L893.034 205.857 893.034 204.21 799.862 204.21zM799.862 211.992L893.034 211.992 893.034 210.345 799.862 210.345zM799.862 218.128L893.034 218.128 893.034 216.481 799.862 216.481zM799.862 224.263L893.034 224.263 893.034 222.617 799.862 222.617zM799.862 230.398L893.034 230.398 893.034 228.752 799.862 228.752zM799.862 236.534L893.034 236.534 893.034 234.887 799.862 234.887zM799.862 242.669L893.034 242.669 893.034 241.022 799.862 241.022zM799.862 248.804L893.034 248.804 893.034 247.157 799.862 247.157z" transform="translate(-311 -382) translate(4 -1) translate(307 383)"/>
                            <path fill="#2E3E5C" d="M659.408 226.906L684.376 226.906 684.376 151.635 659.408 151.635z" transform="translate(-311 -382) translate(4 -1) translate(307 383)"/>
                            <path fill="#F7CE8F" d="M659.408 226.906L665.184 226.906 665.184 151.635 659.408 151.635z" transform="translate(-311 -382) translate(4 -1) translate(307 383)"/>
                            <path fill="#2E3E5C" d="M702.991 248.804L727.961 248.804 727.961 151.635 702.991 151.635z" transform="translate(-311 -382) translate(4 -1) translate(307 383)"/>
                            <path fill="#F7CE8F" d="M702.991 248.804L708.765 248.804 708.765 151.635 702.991 151.635zM801.93 129.878L844.135 129.878 844.135 73.656 801.93 73.656z" transform="translate(-311 -382) translate(4 -1) translate(307 383)"/>
                            <path fill="#2E3E5C" d="M810.55 129.878L835.514 129.878 835.514 89.351 810.55 89.351z" transform="translate(-311 -382) translate(4 -1) translate(307 383)"/>
                            <path fill="#FFF" d="M829.656 129.878L835.514 129.878 835.514 89.351 829.656 89.351z" transform="translate(-311 -382) translate(4 -1) translate(307 383)"/>
                            <g transform="translate(-311 -382) translate(4 -1) translate(307 383) translate(762.645 73.145)">
                                <mask id="eehjx40gpz" fill="#fff">
                                    <use xlink:href="#dy2757mgrx"/>
                                </mask>
                                <path fill="url(#6g53gyedqy)" d="M39.285 0.511L0.695 0.511 39.285 56.732 39.285 0.511" mask="url(#eehjx40gpz)"/>
                            </g>
                            <path fill="#36A9E1" d="M670.775 226.906L684.376 226.906 684.376 163.983 670.775 163.983zM714.353 248.804L727.961 248.804 727.961 163.983 714.353 163.983z" transform="translate(-311 -382) translate(4 -1) translate(307 383)"/>
                            <path fill="#FFF" d="M708.765 176.827L727.961 176.827 727.961 173.533 708.765 173.533zM665.184 176.827L684.376 176.827 684.376 173.533 665.184 173.533z" transform="translate(-311 -382) translate(4 -1) translate(307 383)"/>
                            <path fill="#36A9E1" d="M816.057 129.878L829.656 129.878 829.656 101.698 816.057 101.698z" transform="translate(-311 -382) translate(4 -1) translate(307 383)"/>
                            <path fill="#FFF" d="M570.212 248.804L567.744 248.804 567.744 221.974 571.682 221.974 570.212 248.804M585.137 248.804L582.796 248.804 578.535 221.974 582.474 221.974 585.137 248.804M585.181 199.008L583.117 199.008 578.535 221.974 582.474 221.974 585.181 199.008" transform="translate(-311 -382) translate(4 -1) translate(307 383)"/>
                            <path fill="#FFF" d="M567.744 226.96L582.474 226.96 582.474 221.974 567.744 221.974z" transform="translate(-311 -382) translate(4 -1) translate(307 383)"/>
                            <path fill="#FFF" d="M575.252 226.96L586.044 226.96 586.044 221.974 575.252 221.974zM506.618 248.804L504.15 248.804 504.15 221.974 508.087 221.974 506.618 248.804M521.542 248.804L519.201 248.804 514.941 221.974 518.879 221.974 521.542 248.804M521.587 199.008L519.523 199.008 514.941 221.974 518.879 221.974 521.587 199.008" transform="translate(-311 -382) translate(4 -1) translate(307 383)"/>
                            <path fill="#FFF" d="M504.15 226.96L518.879 226.96 518.879 221.974 504.15 221.974z" transform="translate(-311 -382) translate(4 -1) translate(307 383)"/>
                            <path fill="#FFF" d="M498.706 226.96L575.252 226.96 575.252 221.974 498.706 221.974zM511.93 203.994L588.476 203.994 589.379 199.008 512.833 199.008 511.93 203.994M510.542 211.649L587.089 211.649 587.992 206.663 511.446 206.663 510.542 211.649" transform="translate(-311 -382) translate(4 -1) translate(307 383)"/>
                            <g transform="translate(-311 -382) translate(4 -1) translate(307 383) translate(401.114 37.894)">
                                <mask id="3kejmbd5lC" fill="#fff">
                                    <use xlink:href="#rs8wefghzA"/>
                                </mask>
                                <path fill="url(#hvneewlgrB)" d="M144.966 47.58c-3.082-4.982-9.332-9.736-17.241-10.894-13.188-1.929-8.662-16.557-20.124-20.428-12.087-4.084-13.106 5.652-44.017-11.902C54.942-.553 38.915-2.092 31.8 7.234c-4.165 5.459-5.186 13.397-3.962 20.007 1.176 6.36 5.929 15.542.764 21.258-4.905 5.428-13.531 3.71-19.505 7.157-6.07 3.502-8.41 10.58-8.501 17.247-.217 15.572 6.453 32.362 16.33 44.243 20.586 24.76 57.68 30.68 86.972 20.016 17.31-6.3 30.853-19.131 38.756-35.74 7.523-15.806 12.11-37.988 2.312-53.842" mask="url(#3kejmbd5lC)"/>
                            </g>
                            <g transform="translate(-311 -382) translate(4 -1) translate(307 383) translate(401.114 37.894)">
                                <mask id="lquzo7mk5F" fill="#fff">
                                    <use xlink:href="#5yocuwedzD"/>
                                </mask>
                                <path fill="url(#0vw99jl1pE)" d="M99.066 15.183c-6.526.31-13.328 1.763-35.485-10.83C54.945-.552 38.92-2.09 31.798 7.236c-4.159 5.459-5.183 13.395-3.957 20.007 1.173 6.356 5.93 15.542.758 21.258-4.905 5.426-13.53 3.707-19.502 7.157C3.03 59.161.684 66.233.6 72.898c-.224 15.575 6.45 32.368 16.323 44.245.95 1.143 1.93 2.244 2.954 3.3 37.179 20.264 10.257-41.52 22.668-52.736 7.858-7.103 23.223 2.96 30.185-2.029 3.476-2.489 3.198-7.414.49-11.163-8.36-11.548-21.794-23.843-15.15-30.83 3.55-3.738 10.62-1.687 23.936-1.644 15.386.044 23.318-3.931 17.06-6.858" mask="url(#lquzo7mk5F)"/>
                            </g>
                            <path fill="#2E3E5C" d="M483.526 248.804L475.903 248.804 475.595 198.608 467.245 120.513 469.24 117.976 480.126 194.185 487.875 144.027 489.745 145.972 482.128 203.031 483.526 248.804" transform="translate(-311 -382) translate(4 -1) translate(307 383)"/>
                            <path fill="#2E3E5C" d="M503.34 139.886L485.569 166.146 485.569 163.983 502.329 138.851 503.34 139.886M472.37 160.338L457.232 139.799 458.068 138.851 472.689 157.813 472.37 160.338M476.106 116.597L471.642 141.29 470.644 138.851 475.087 116.287 476.106 116.597" transform="translate(-311 -382) translate(4 -1) translate(307 383)"/>
                            <g transform="translate(-311 -382) translate(4 -1) translate(307 383) translate(922.739 202.691)">
                                <mask id="9t2d213zrI" fill="#fff">
                                    <use xlink:href="#6mvmikllqG"/>
                                </mask>
                                <path fill="url(#ou3biv1dcH)" d="M227.483 46.113c-3.88-9.399-23.249-27.88-47.826-22.872-26.838 5.468-32.731-6.458-43.797-11.417-20.25-9.079-30.224 13.446-42.882 1.87C75.297-2.472 60.976-4.12 49.558 10.775 33.146 32.196 6.238 8.476.195 46.113h227.289" mask="url(#9t2d213zrI)"/>
                            </g>
                            <g transform="translate(-311 -382) translate(4 -1) translate(307 383) translate(1001.906 200.929)">
                                <mask id="3a0im4o9dL" fill="#fff">
                                    <use xlink:href="#yjcznmq9bJ"/>
                                </mask>
                                <path fill="url(#fim0wun4eK)" d="M102.592 47.876H.212c.58-31.388 8.822-11.24 8.822-11.24s2.71-22.938 8.7-23.867c5.656-.879 8.32 22.505 8.32 22.505S32.205 1.864 40.34.576c7.143-1.13 1.53 30.961 1.53 30.961s4.188-3.298 10.204-3.545c6.695-.275 3.959 6.242 3.959 6.242s8.365-14.511 13.863-14.238c6.887.342 2.146 15.052 2.146 15.052s5.067-4.844 10.38-5.527c10.397-1.335-.642 11.992-.642 11.992s7.38-3.026 20.1-4.95c12.411-1.877 9.834 5.219.712 11.313" mask="url(#3a0im4o9dL)"/>
                            </g>
                            <g transform="translate(-311 -382) translate(4 -1) translate(307 383) translate(950.008 37.894)">
                                <mask id="38iz3zqf3O" fill="#fff">
                                    <use xlink:href="#ib75ys72jM"/>
                                </mask>
                                <path fill="url(#g88kz719pN)" d="M140.452 35.574c.307-18.657-16.265-24.525-32.336-19.316-12.156 3.94-13.142 5.652-43.929-11.902-8.603-4.909-24.62-6.448-31.808 2.878-4.204 5.459-5.277 13.397-4.107 20.007 1.134 6.36 5.823 15.542.615 21.258-4.943 5.428-13.564 3.71-19.563 7.157-6.096 3.502-8.48 10.58-8.62 17.247-.335 15.572 5.559 32.936 16.01 44.243 21.058 22.8 58.082 31.61 92.29 22.889 75.43-19.227 47.061-59.827 38.22-70.59-9.517-11.573-6.984-21.007-6.772-33.87" mask="url(#38iz3zqf3O)"/>
                            </g>
                            <g transform="translate(-311 -382) translate(4 -1) translate(307 383) translate(950.008 37.894)">
                                <mask id="trb5aschqR" fill="#fff">
                                    <use xlink:href="#wgl0njz3sP"/>
                                </mask>
                                <path fill="url(#lh0ttyb1dQ)" d="M109.049 15.984c-.308.087-.625.182-.933.278-12.156 3.931-13.142 5.652-43.929-11.91-8.612-4.904-24.62-6.441-31.799 2.884-4.213 5.459-5.295 13.395-4.116 20.007 1.134 6.356 5.814 15.542.615 21.258-4.943 5.426-13.555 3.707-19.554 7.157C3.228 59.161.844 66.233.695 72.898c-.326 15.575 6.219 32.368 16.018 44.245 1.293 1.57 2.648 3.066 4.082 4.487 33.778 20.563-1.346-23.853 26.538-42.194 13.784-9.08 40.393-18.619 28.808-33.07-8.462-10.566-14.883-14.68-12.297-20.49 1.416-3.205 5.56-6.217 18.64-3.835 17.891 3.269 30.954-3.087 26.565-6.057" mask="url(#trb5aschqR)"/>
                            </g>
                            <path fill="#2E3E5C" d="M1029.931 248.804L1037.558 248.804 1036.889 198.608 1038.517 116.597 1036.546 114.06 1032.394 194.185 1021.117 144.949 1019.235 146.895 1030.327 203.031 1029.931 248.804" transform="translate(-311 -382) translate(4 -1) translate(307 383)"/>
                            <path fill="#2E3E5C" d="M1049.741 128.037L1036.784 147.396 1036.757 151.258 1051.087 129.193 1049.741 128.037M1030.468 120.677L1036.142 132.194 1036.124 134.682 1029.606 121.035 1030.468 120.677M1013.201 151.507L1022.745 160.065 1023.528 162.257 1012.383 152.107 1013.201 151.507" transform="translate(-311 -382) translate(4 -1) translate(307 383)"/>
                            <path fill="url(#fim0wun4eK)" d="M996.866 248.804c-2.622-6.559-5.34-11.348-7.556-10.814-2.19.526-2.789 4.903-2.551 10.814h10.107M980.619 248.804c-3.844-2.506-7.934-5.04-11.47-5.4-3.642-.371-4.416 2.448-4.83 5.4h16.3" transform="translate(-311 -382) translate(4 -1) translate(307 383)"/>
                            <path fill="#A9EC73" d="M351.585 248.804c-2.28-2.91-6.167-4.886-9.7-5.247-3.643-.37-6.108 2.531-5.065 5.247h14.765" transform="translate(-311 -382) translate(4 -1) translate(307 383)"/>
                        </g>
                    </g>
                </g>
            </g>
        </g>
    </g>
</svg>
