<svg xmlns="http://www.w3.org/2000/svg" xmlns:xlink="http://www.w3.org/1999/xlink" width="88" height="112" viewBox="0 0 88 112">
    <defs>
        <path id="8xsncqs3ua" d="M0 0.871L87.636 0.871 87.636 102 0 102z"/>
    </defs>
    <g fill="none" fill-rule="evenodd">
        <g>
            <g>
                <g>
                    <g>
                        <g>
                            <path fill="#C6C6C6" d="M69.508 61H17.485C16.11 61 15 62.124 15 63.5c0 1.383 1.11 2.5 2.485 2.5h52.023C70.885 66 72 64.883 72 63.5c0-1.376-1.115-2.5-2.492-2.5M69.551 74h-29.11C39.09 74 38 75.12 38 76.5c0 1.383 1.09 2.5 2.44 2.5h29.111C70.904 79 72 77.883 72 76.5c0-1.38-1.096-2.5-2.449-2.5M43.362 9.987c-1.945 0-3.525-1.543-3.525-3.444 0-1.899 1.58-3.436 3.525-3.436 1.948 0 3.534 1.537 3.534 3.436 0 1.901-1.586 3.444-3.534 3.444zM65 12.059v-1.747c0-2.556-2.137-4.646-4.75-4.646h-8.165C51.712 2.49 46.862 0 43.505 0c-3.365 0-8.23 2.49-8.585 5.666h-8.167C24.13 5.666 22 7.756 22 10.312V20h43v-7.941z" transform="translate(-356 -829) translate(250 680) translate(0 110) translate(106 39)"/>
                            <g transform="translate(-356 -829) translate(250 680) translate(0 110) translate(106 39) translate(0 10)">
                                <mask id="y6c2p9hznb" fill="#fff">
                                    <use xlink:href="#8xsncqs3ua"/>
                                </mask>
                                <path fill="#009FE3" d="M24.552 86.037l-9.66-10.708c-2.09-2.32-6.368-7.711-5.67-7.718.704-.024 3.982 3.63 10.086 3.385l3.39-.048c3.108-.039 5.648 2.48 5.648 5.61v4.665c-.088 5.692 3.727 8.226 3.727 9.148 0 .921-5.433-2.017-7.52-4.334M77.734.871H67.31v2.897l.074 2.106h5.04c4.07 0 7.36 3.332 7.36 7.422v71.939c0 4.088-3.29 7.415-7.36 7.415H38.908c-4.045 0-7.412-3.3-7.514-7.366l-.365-13.037c-.058-2.162-1.842-3.907-3.987-3.907l-12 .167c-4.135 0-7.403-3.295-7.403-7.337V13.296c0-4.09 3.31-7.422 7.37-7.422h3.45V.87H9.901C4.462.87 0 5.247 0 10.578v81.719C0 97.63 4.461 102 9.902 102h67.833c5.444 0 9.901-4.37 9.901-9.703v-81.72c0-5.33-4.457-9.706-9.901-9.706" mask="url(#y6c2p9hznb)"/>
                            </g>
                            <path fill="#C6C6C6" d="M69.508 48H17.485C16.11 48 15 49.12 15 50.5c0 1.383 1.11 2.5 2.485 2.5h52.023C70.885 53 72 51.883 72 50.5c0-1.38-1.115-2.5-2.492-2.5M69.508 35H17.485C16.11 35 15 36.12 15 37.5c0 1.383 1.11 2.5 2.485 2.5h52.023C70.885 40 72 38.883 72 37.5c0-1.38-1.115-2.5-2.492-2.5" transform="translate(-356 -829) translate(250 680) translate(0 110) translate(106 39)"/>
                        </g>
                    </g>
                </g>
            </g>
        </g>
    </g>
</svg>
