<svg xmlns="http://www.w3.org/2000/svg" width="121" height="115" viewBox="0 0 121 115">
    <g fill="none" fill-rule="evenodd">
        <g>
            <g>
                <g>
                    <g>
                        <g>
                            <path fill="#009FE3" d="M91.692 79.187c-4.076 0-7.375-3.438-7.375-7.683 0-4.193 3.299-7.628 7.375-7.628 4.025 0 7.316 3.435 7.316 7.628 0 4.245-3.291 7.683-7.316 7.683M116.858 57H84.14C81.881 57 80 58.984 80 61.326v20.427C80 84.093 81.881 86 84.14 86h32.718c2.255 0 4.142-1.907 4.142-4.247V61.326c0-2.342-1.887-4.326-4.142-4.326M11 25C25.441 16.691 39.899 8.398 54.335.12c1.343-.321 2.442 0 3.29.989C59.398 4.194 61.23 7.305 63 10.376 45.687 15.282 28.303 20.132 11 25M22 25c22.377-5.667 44.757-11.33 67.184-17 1.878.034 3.273.896 4.068 2.477 1.207 4.818 2.479 9.653 3.748 14.45C71.967 25 46.984 25 22 25" transform="translate(-980 -826) translate(250 680) translate(0 110) translate(640) translate(90 36)"/>
                            <path fill="#C6C6C6" d="M112.883 31.175c-1.35-1.308-3.166-2.175-5.181-2.175H7.238c-2.01 0-3.84.867-5.108 2.175C.788 32.543 0 34.431 0 36.483v71.06c0 2.075.788 3.941 2.13 5.25C3.399 114.173 5.228 115 7.238 115h100.464c2.015 0 3.83-.828 5.18-2.207 1.277-1.309 2.118-3.175 2.118-5.25V91.703H83.515c-2.55 0-4.917-1.064-6.628-2.826-1.684-1.75-2.738-4.183-2.738-6.8V61.974c0-2.62 1.054-5.078 2.738-6.82 1.711-1.765 4.078-2.823 6.628-2.823H115V36.483c0-2.052-.841-3.94-2.117-5.308" transform="translate(-980 -826) translate(250 680) translate(0 110) translate(640) translate(90 36)"/>
                        </g>
                    </g>
                </g>
            </g>
        </g>
    </g>
</svg>
