<svg xmlns="http://www.w3.org/2000/svg" xmlns:xlink="http://www.w3.org/1999/xlink" width="131" height="107" viewBox="0 0 131 107">
    <defs>
        <path id="wwp30zsppa" d="M0.421 0.637L30.737 0.637 30.737 30.952 0.421 30.952z"/>
    </defs>
    <g fill="none" fill-rule="evenodd">
        <g>
            <g>
                <g>
                    <g>
                        <g>
                            <path fill="#C6C6C6" d="M117.425 61.009c-3.105 0-5.964-1.046-8.253-2.805l-32.709 28.5c1.116 1.98 1.756 4.259 1.756 6.693 0 7.512-6.075 13.603-13.573 13.603s-13.573-6.091-13.573-13.603c0-2.513.68-4.862 1.866-6.883L21.652 58.35c-2.257 1.678-5.052 2.67-8.079 2.67C6.075 61.02 0 54.932 0 47.419c0-7.512 6.075-13.602 13.573-13.602 7.496 0 13.573 6.09 13.573 13.602 0 2.512-.682 4.863-1.866 6.882l31.286 28.166c1.564-1.162 3.386-1.997 5.365-2.399V28.933c-6.196-1.26-10.858-6.75-10.858-13.331C51.073 8.09 57.148 2 64.646 2s13.573 6.09 13.573 13.602c0 6.58-4.663 12.07-10.86 13.33v51.135c2.054.417 3.937 1.302 5.54 2.533l32.71-28.502c-1.117-1.977-1.757-4.258-1.757-6.692 0-7.512 6.077-13.602 13.573-13.602 7.498 0 13.575 6.09 13.575 13.602 0 7.513-6.077 13.603-13.575 13.603" transform="translate(-655 -834) translate(250 680) translate(0 110) translate(320) translate(85 44)"/>
                            <g transform="translate(-655 -834) translate(250 680) translate(0 110) translate(320) translate(85 44) translate(49)">
                                <mask id="a6ru9tyipb" fill="#fff">
                                    <use xlink:href="#wwp30zsppa"/>
                                </mask>
                                <path fill="#009FE3" d="M30.737 15.794c0 8.372-6.786 15.158-15.158 15.158S.42 24.166.42 15.794 7.207.636 15.58.636s15.158 6.786 15.158 15.158" mask="url(#a6ru9tyipb)"/>
                            </g>
                        </g>
                    </g>
                </g>
            </g>
        </g>
    </g>
</svg>
