<svg xmlns="http://www.w3.org/2000/svg" xmlns:xlink="http://www.w3.org/1999/xlink" width="184" height="57" viewBox="0 0 184 57">
    <defs>
        <path id="pbssw4upra" d="M23.003 19.255L60 19.255 60 55.507 23.003 55.507z"/>
    </defs>
    <g fill="none" fill-rule="evenodd">
        <g>
            <g>
                <g>
                    <g transform="translate(-150 -26) translate(150 26)">
                        <path fill="#36A9E1" d="M40.425 11.446c2.825-.857 5.918-.861 8.575-.15C41.712 2 29.185-2.36 17.187 1.283 11.812 2.913 7.247 5.94 3.768 9.84.532 13.63-.934 19.166.628 24.282c2.437 7.988 10.907 12.49 18.917 10.059 5.493-1.667 9.344-6.166 10.433-11.405 1.082-5.27 4.922-9.812 10.447-11.49z"/>
                    </g>
                    <path fill="#64B900" d="M25.9 47.856c-2.585 5.899-4.9 9.037-4.9 9.037s43.53 3.542 34.857-30.066C38.264 12.03 31.632 34.772 25.9 47.856" transform="translate(-150 -26) translate(150 26)"/>
                    <text fill="#454F5B" font-family="ArialRoundedMTBold, Arial Rounded MT Bold" font-size="25" transform="translate(-150 -26) translate(150 26)">
                        <tspan x="76" y="38">WATECA</tspan>
                    </text>
                    <path fill="#4B8B00" d="M23.003 55.507s2.658-1.579 6.504-4.274c3.848-2.685 8.875-6.512 13.58-10.863 2.353-2.17 4.614-4.489 6.61-6.802.5-.578.986-1.151 1.443-1.735.469-.57.909-1.147 1.327-1.718.43-.56.823-1.126 1.197-1.683.386-.543.735-1.093 1.058-1.625.337-.524.64-1.037.908-1.542.278-.499.55-.964.762-1.431.222-.458.428-.889.62-1.286l.463-1.123c.3-.67.437-1.236.578-1.602l.193-.568L60 20.04s-.082.217-.232.624c-.165.396-.345 1.021-.692 1.73-.163.361-.347.762-.545 1.197l-.708 1.348c-.245.487-.547.966-.856 1.48-.303.521-.641 1.048-1.01 1.577-.358.543-.738 1.096-1.158 1.642-.407.56-.834 1.127-1.295 1.685-.451.57-.923 1.138-1.423 1.7-.488.578-1.004 1.14-1.533 1.706-2.114 2.265-4.48 4.5-6.924 6.575-4.886 4.16-10.046 7.746-13.982 10.246-3.935 2.51-6.64 3.957-6.64 3.957" transform="translate(-150 -26) translate(150 26)"/>
                </g>
            </g>
        </g>
    </g>
</svg>
